<?xml version="1.0" standalone="no"?>
<svg id="elma-logo" xmlns="http://www.w3.org/2000/svg" viewBox="0 0 500 500">
  <defs>
    <linearGradient id="gradRed" x1="0" y1="0" x2="1" y2="1">
      <stop offset="0%" stop-color="#ff2d2d"/>
      <stop offset="100%" stop-color="#c01212"/>
    </linearGradient>
  </defs>

  <!-- emblem wings -->
  <g fill="url(#gradRed)">
    <path d="M250 140 C230 190 180 210 140 250 C110 280 100 310 130 290 C180 260 210 210 250 200 Z"/>
    <path d="M250 140 C270 190 320 210 360 250 C390 280 400 310 370 290 C320 260 290 210 250 200 Z"/>
  </g>

  <!-- center flame-like shape -->
  <path d="M250 140 C240 180 245 260 250 300 C255 260 260 180 250 140 Z" fill="url(#gradRed)"/>

  <!-- text -->
  <text x="50%" y="400" text-anchor="middle" font-family="Arial, Helvetica, sans-serif" font-size="64" fill="#cccccc" letter-spacing="12">ELMA</text>
  <text x="50%" y="440" text-anchor="middle" font-family="Arial, Helvetica, sans-serif" font-size="22" fill="#888888" letter-spacing="8">STUDIOS</text>
</svg>
